<svg xmlns="http://www.w3.org/2000/svg" viewBox="0 0 46.66 49.11">
  <defs>
    <style>
      .a {
        fill: #fff;
      }
    </style>
  </defs>
  <g>
    <rect width="46.66" height="49.11"/>
    <path class="a" d="M31.93,30.21l-8.32-8.76a6.82,6.82,0,0,0,.58-2.76,6.47,6.47,0,0,0-6.29-6.62,6.06,6.06,0,0,0-2.72.65l4.2,4.42-3,3.11-4.19-4.41a6.75,6.75,0,0,0-.62,2.85,6.47,6.47,0,0,0,6.29,6.63,6.11,6.11,0,0,0,2.62-.61l8.32,8.76a2.13,2.13,0,0,0,1.55.67,2.09,2.09,0,0,0,1.54-.67,2.38,2.38,0,0,0,0-3.26"/>
  </g>
</svg>
