<svg xmlns="http://www.w3.org/2000/svg" viewBox="0 0 46.66 49.11">
  <defs>
    <style>
      .a {
        fill: #fff;
      }
    </style>
  </defs>
  <g>
    <rect width="46.66" height="49.11"/>
    <path class="a" d="M18.7,17.59H10.76a3.4,3.4,0,0,0-3.31,3.48V31.52H10.1V27.34h8.6A3.4,3.4,0,0,0,22,23.86V21.07a3.4,3.4,0,0,0-3.31-3.48m.66,6.27a.68.68,0,0,1-.66.69H10.1V21.07a.67.67,0,0,1,.66-.69H18.7a.68.68,0,0,1,.66.69Z"/>
    <polygon class="a" points="39.21 17.59 23.33 17.59 23.33 20.38 29.95 20.38 29.95 31.52 32.59 31.52 32.59 20.38 39.21 20.38 39.21 17.59"/>
  </g>
</svg>
