<svg xmlns="http://www.w3.org/2000/svg" viewBox="0 0 33.66 14.96">
  <g>
    <path d="M26.82,15a3.13,3.13,0,0,1-3.13-3.12V0h2.49V11.84a.63.63,0,1,0,1.25,0V6.23h2.49v5.61A3.11,3.11,0,0,1,26.82,15"/>
    <path d="M30.57,15a3.13,3.13,0,0,1-3.14-3.12h2.49a.64.64,0,0,0,.64.63.61.61,0,0,0,.61-.63V0h2.49V11.84A3.11,3.11,0,0,1,30.57,15"/>
    <rect y="1.25" width="2.49" height="13.71"/>
    <path d="M21.19,15H18.7V3.12a.63.63,0,0,0-.62-.63h-2.5a.63.63,0,0,0-.62.63V15H12.47V3.12A3.12,3.12,0,0,1,15.58,0h2.5a3.12,3.12,0,0,1,3.11,3.12Z"/>
    <rect x="13.71" y="7.48" width="6.24" height="2.49"/>
    <path d="M2.49,6.23H5.64A1.84,1.84,0,0,0,7.48,4.39a1.86,1.86,0,0,0-1.84-1.9H2.49Zm3.15,2.5H0V0H5.64A4.33,4.33,0,0,1,10,4.33a4.35,4.35,0,0,1-4.33,4.4"/>
    <polygon points="9.5 14.96 6.72 14.96 3.88 8.04 6.1 6.92 9.5 14.96"/>
  </g>
</svg>
