<svg id="Layer_1" data-name="Layer 1" xmlns="http://www.w3.org/2000/svg" viewBox="0 0 505.82 289.44">
  <defs>
    <style>
      .cls-1 {
        fill: #1a1a18;
      }
      .cls-2 {
        fill: #134094;
      }
      .cls-3 {
        fill: #ffed00;
      }
      .cls-3, .cls-4, .cls-5, .cls-6 {
        fill-rule: evenodd;
      }
      .cls-4 {
        fill: #0076be;
      }
      .cls-5 {
        fill: #fff;
      }
    </style>
  </defs>
  <g>
    <polygon class="cls-1" points="71.39 220.85 71.39 201.8 85.16 201.8 85.16 204.05 73.91 204.05 73.91 209.88 84.45 209.88 84.45 212.12 73.91 212.12 73.91 218.6 85.6 218.6 85.6 220.85 71.39 220.85"/>
    <path class="cls-1" d="M97.83,220.85v-2a5.07,5.07,0,0,1-4.38,2.34,5.6,5.6,0,0,1-2.28-.47,3.7,3.7,0,0,1-1.57-1.17,4.21,4.21,0,0,1-.72-1.74,11.34,11.34,0,0,1-.15-2.18v-8.55h2.34v7.65a14.25,14.25,0,0,0,.14,2.47,2.43,2.43,0,0,0,.94,1.45,2.92,2.92,0,0,0,1.77.52,3.81,3.81,0,0,0,2-.53,3,3,0,0,0,1.31-1.47,7.52,7.52,0,0,0,.38-2.7v-7.39h2.34v13.8Z"/>
    <path class="cls-1" d="M103.56,220.85v-13.8h2.1v2.09a5.61,5.61,0,0,1,1.49-1.93,2.59,2.59,0,0,1,1.5-.47,4.55,4.55,0,0,1,2.4.75l-.8,2.17a3.32,3.32,0,0,0-1.72-.51,2.24,2.24,0,0,0-1.37.46,2.48,2.48,0,0,0-.87,1.29,8.72,8.72,0,0,0-.39,2.72v7.23Z"/>
    <path class="cls-1" d="M111.57,214q0-3.84,2.13-5.68c2.36-2.14,6.85-2.05,9,.33,2.14,1.88,2.26,7,1,9.34a5.64,5.64,0,0,1-2.32,2.37c-2.47,1.41-6.16,1.05-8-1a7.42,7.42,0,0,1-1.79-5.35Zm2.41,0a5.88,5.88,0,0,0,1.15,4,3.85,3.85,0,0,0,5.81,0c1.5-1.53,1.58-6.34,0-7.92a3.85,3.85,0,0,0-5.8,0A5.83,5.83,0,0,0,114,214Z"/>
    <path class="cls-1" d="M126.37,214q0-3.84,2.13-5.68c2.36-2.14,6.85-2.05,9,.33,2.14,1.88,2.26,7,1,9.34a5.66,5.66,0,0,1-2.33,2.37c-2.46,1.41-6.15,1.05-8-1a7.38,7.38,0,0,1-1.79-5.35Zm2.4,0a5.88,5.88,0,0,0,1.16,4,3.85,3.85,0,0,0,5.81,0c1.5-1.53,1.58-6.34,0-7.92a3.85,3.85,0,0,0-5.8,0A5.83,5.83,0,0,0,128.77,214Z"/>
    <path class="cls-1" d="M142,226.13V207.05h2.13v1.79c3.79-5,10.39-.54,9.85,5,.55,5.25-5.7,10.05-9.64,5.57v6.71Zm2.12-12.1c-.36,7.05,7.91,6.76,7.47-.2C151.86,206.64,143.88,207.05,144.16,214Z"/>
    <path class="cls-1" d="M165.84,219.14c-2.24,2.14-6.28,2.83-8.58.91a3.93,3.93,0,0,1,.45-6c1.85-1.35,6.24-1.14,7.94-1.92.25-2.39-1-3.44-3.32-3.42-2.15,0-3,.57-3.6,2.63l-2.28-.32c.34-5,10.41-6,11.44-1.19.47,3.1-.52,8.66.86,11.06h-2.44a5,5,0,0,1-.47-1.71Zm-.19-5.22c-1.37.88-5.6.49-6.78,2.12-1.63,3,2.83,4.09,4.85,2.7C165.53,217.78,165.73,216,165.65,213.92Z"/>
    <polygon class="cls-1" points="29.32 248.14 29.32 229.09 43.09 229.09 43.09 231.34 31.84 231.34 31.84 237.17 42.37 237.17 42.37 239.41 31.84 239.41 31.84 245.89 43.53 245.89 43.53 248.14 29.32 248.14"/>
    <path class="cls-1" d="M55.75,248.14v-2a5,5,0,0,1-4.38,2.34,5.63,5.63,0,0,1-2.28-.46,3.85,3.85,0,0,1-1.57-1.18,4.45,4.45,0,0,1-.72-1.73,12.51,12.51,0,0,1-.14-2.19v-8.55H49V242a14.17,14.17,0,0,0,.14,2.47,2.46,2.46,0,0,0,.93,1.45,2.93,2.93,0,0,0,1.77.53,3.88,3.88,0,0,0,2-.54,3,3,0,0,0,1.3-1.47,7.25,7.25,0,0,0,.39-2.69v-7.4h2.33v13.8Z"/>
    <path class="cls-1" d="M61.48,248.14v-13.8h2.11v2.09a5.59,5.59,0,0,1,1.49-1.93,2.58,2.58,0,0,1,1.49-.47,4.61,4.61,0,0,1,2.41.75L68.17,237a3.31,3.31,0,0,0-1.71-.51,2.21,2.21,0,0,0-1.38.46,2.46,2.46,0,0,0-.87,1.28,9.1,9.1,0,0,0-.39,2.73v7.22Z"/>
    <path class="cls-1" d="M157.57,248.14v-13.8h2.1v2.09a5.59,5.59,0,0,1,1.49-1.93,2.59,2.59,0,0,1,1.5-.47,4.58,4.58,0,0,1,2.4.75l-.81,2.18a3.29,3.29,0,0,0-1.71-.51,2.33,2.33,0,0,0-2.25,1.74,9.1,9.1,0,0,0-.39,2.73v7.22Z"/>
    <path class="cls-1" d="M231.51,248.14v-13.8h2.11v2.09a5.59,5.59,0,0,1,1.49-1.93,2.59,2.59,0,0,1,1.5-.47,4.6,4.6,0,0,1,2.4.75L238.2,237a3.31,3.31,0,0,0-1.71-.51,2.32,2.32,0,0,0-2.25,1.74,9.1,9.1,0,0,0-.39,2.73v7.22Z"/>
    <path class="cls-1" d="M69.5,241.24c0-2.55.71-4.45,2.13-5.68,2.36-2.14,6.85-2.05,9,.34,2.14,1.87,2.25,7,1,9.34a5.66,5.66,0,0,1-2.33,2.37c-2.46,1.41-6.15,1-8-1a7.4,7.4,0,0,1-1.78-5.35Zm2.4,0a5.88,5.88,0,0,0,1.16,4,3.85,3.85,0,0,0,5.81,0c1.5-1.52,1.57-6.34,0-7.91a3.85,3.85,0,0,0-5.8,0A5.85,5.85,0,0,0,71.9,241.24Z"/>
    <path class="cls-1" d="M84.29,241.24c0-2.55.71-4.45,2.14-5.68,2.35-2.14,6.84-2.05,9,.34,2.14,1.87,2.26,7,1,9.34a5.64,5.64,0,0,1-2.32,2.37c-2.46,1.41-6.16,1-8-1a7.41,7.41,0,0,1-1.79-5.35Zm2.41,0a5.88,5.88,0,0,0,1.15,4,3.85,3.85,0,0,0,5.81,0c1.5-1.52,1.58-6.34,0-7.91a3.85,3.85,0,0,0-5.8,0A5.85,5.85,0,0,0,86.7,241.24Z"/>
    <path class="cls-1" d="M100,253.43V234.34h2.13v1.8c3.78-5,10.38-.55,9.84,5,.55,5.25-5.7,10.06-9.64,5.57v6.72Zm2.11-12.11c-.35,7.06,7.92,6.76,7.47-.2C109.78,233.94,101.81,234.34,102.08,241.32Z"/>
    <path class="cls-1" d="M123.77,246.44c-2.25,2.13-6.28,2.83-8.58.9a3.91,3.91,0,0,1,.45-6c1.85-1.36,6.23-1.15,7.93-1.93.26-2.39-.95-3.43-3.31-3.41-2.16,0-3,.56-3.6,2.62l-2.29-.31c.35-5,10.41-6,11.45-1.19.47,3.09-.52,8.65.86,11h-2.45a4.77,4.77,0,0,1-.46-1.7Zm-.2-5.23c-1.36.88-5.6.49-6.78,2.12-1.62,3,2.84,4.1,4.86,2.7C123.46,245.07,123.65,243.26,123.57,241.21Z"/>
    <polygon class="cls-1" points="179.22 220.85 179.22 201.8 181.74 201.8 181.74 218.6 191.12 218.6 191.12 220.85 179.22 220.85"/>
    <path class="cls-1" d="M193.84,204.49V201.8h2.34v2.69Zm0,16.36v-13.8h2.34v13.8Z"/>
    <path class="cls-1" d="M199.75,204.49V201.8h2.34v2.69Zm0,16.36v-13.8h2.34v13.8Z"/>
    <path class="cls-1" d="M210.75,218.75l.34,2.07a8.62,8.62,0,0,1-1.76.21,4,4,0,0,1-2-.4,2.26,2.26,0,0,1-1-1.07,8.26,8.26,0,0,1-.29-2.75v-7.94h-1.71v-1.82h1.71v-3.42l2.33-1.4v4.82h2.35v1.82H208.4v8.07a4.17,4.17,0,0,0,.12,1.28,1.07,1.07,0,0,0,.41.46,1.55,1.55,0,0,0,.79.17A6.4,6.4,0,0,0,210.75,218.75Z"/>
    <path class="cls-1" d="M155.3,245.74l.34,2.07a8.46,8.46,0,0,1-1.76.21,4,4,0,0,1-2-.41,2.2,2.2,0,0,1-1-1.06,8.34,8.34,0,0,1-.28-2.75v-7.94h-1.72V234h1.72v-3.42l2.32-1.4V234h2.35v1.82H153v8.06a4.2,4.2,0,0,0,.12,1.29,1.07,1.07,0,0,0,.41.46,1.57,1.57,0,0,0,.8.16A7.54,7.54,0,0,0,155.3,245.74Z"/>
    <path class="cls-1" d="M109.44,273.07l.33,2.06a8.46,8.46,0,0,1-1.76.21,4,4,0,0,1-2-.4,2.27,2.27,0,0,1-1-1.06,8.33,8.33,0,0,1-.29-2.76v-7.94H103v-1.82h1.72V258l2.33-1.41v4.82h2.35v1.82h-2.35v8.07a4.2,4.2,0,0,0,.12,1.29.92.92,0,0,0,.4.45,1.59,1.59,0,0,0,.8.17A7.8,7.8,0,0,0,109.44,273.07Z"/>
    <path class="cls-1" d="M199.66,245.74l.34,2.07a8.63,8.63,0,0,1-1.77.21,4,4,0,0,1-2-.41,2.23,2.23,0,0,1-1-1.06,8.26,8.26,0,0,1-.29-2.75v-7.94h-1.72V234H195v-3.42l2.33-1.4V234h2.35v1.82h-2.35v8.06a4.2,4.2,0,0,0,.12,1.29,1,1,0,0,0,.4.46,1.6,1.6,0,0,0,.8.16A7.8,7.8,0,0,0,199.66,245.74Z"/>
    <path class="cls-1" d="M175.5,248v-2c-2,3.39-8.26,3.12-9-1-.29-1.27-.08-9.22-.14-10.73h2.34c0,1.61-.14,8.8.14,10.12.54,2.95,5.34,2.26,6,0,.72-1.52.27-8.29.39-10.09h2.33V248Z"/>
    <path class="cls-1" d="M211,248v-2c-2,3.39-8.26,3.12-9-1-.29-1.27-.08-9.22-.14-10.73h2.34c0,1.61-.14,8.8.14,10.12.54,2.95,5.34,2.26,6,0,.72-1.52.27-8.29.39-10.09h2.34V248Z"/>
    <path class="cls-1" d="M225.79,248v-2c-2,3.39-8.26,3.12-8.95-1-.29-1.27-.08-9.22-.14-10.73H219c.06,1.61-.13,8.8.15,10.12.54,2.95,5.33,2.26,6,0,.72-1.52.27-8.29.39-10.09h2.33V248Z"/>
    <polygon class="cls-1" points="181.26 248 181.26 228.96 183.6 228.96 183.6 239.82 189.13 234.21 192.16 234.21 186.89 239.33 192.7 248 189.81 248 185.25 240.95 183.6 242.54 183.6 248 181.26 248"/>
    <path class="cls-1" d="M240.41,231.65V229h2.34v2.69Zm0,16.35V234.21h2.34V248Z"/>
    <rect class="cls-1" x="245.4" y="239.94" width="7.19" height="2.35"/>
    <path class="cls-1" d="M14.11,258.83v-2.72h2.33v2.72Zm-3,21.68.44-2a4.79,4.79,0,0,0,1.11.18,1.21,1.21,0,0,0,1.06-.48,4.7,4.7,0,0,0,.36-2.37v-14.5h2.33v14.55a6.86,6.86,0,0,1-.66,3.55,3.08,3.08,0,0,1-2.8,1.3A6.59,6.59,0,0,1,11.14,280.51Z"/>
    <path class="cls-1" d="M28.73,273.46c-2.25,2.13-6.28,2.83-8.58.9a3.91,3.91,0,0,1,.45-6c1.85-1.36,6.23-1.15,7.93-1.93.26-2.39-1-3.43-3.31-3.41-2.16,0-3,.56-3.6,2.62l-2.29-.31c.35-5,10.41-6,11.45-1.19.47,3.1-.53,8.65.86,11.05H29.19a4.77,4.77,0,0,1-.46-1.7Zm-.2-5.22c-1.36.87-5.6.48-6.78,2.11-1.62,3,2.84,4.1,4.86,2.7C28.42,272.09,28.61,270.28,28.53,268.24Z"/>
    <path class="cls-1" d="M42.23,258.81v-2.7h2.34v2.7Zm0,16.35v-13.8h2.34v13.8Z"/>
    <path class="cls-1" d="M48.13,275.16v-13.8h2.1v2a5,5,0,0,1,4.39-2.27,5.75,5.75,0,0,1,2.3.45,3.51,3.51,0,0,1,1.56,1.18,4.46,4.46,0,0,1,.73,1.72,13.2,13.2,0,0,1,.13,2.28v8.48H57v-8.39a6.38,6.38,0,0,0-.27-2.14,2.26,2.26,0,0,0-1-1.13,3.07,3.07,0,0,0-1.63-.42,3.81,3.81,0,0,0-2.58.95q-1.08.95-1.08,3.6v7.53Z"/>
    <path class="cls-1" d="M219.66,275.16v-13.8h2.1v2a5,5,0,0,1,4.39-2.27,5.71,5.71,0,0,1,2.29.45,3.55,3.55,0,0,1,1.57,1.18,4.46,4.46,0,0,1,.73,1.72,13.2,13.2,0,0,1,.13,2.28v8.48h-2.34v-8.39a6.38,6.38,0,0,0-.27-2.14,2.26,2.26,0,0,0-1-1.13,3.09,3.09,0,0,0-1.63-.42,3.81,3.81,0,0,0-2.58.95q-1.08.95-1.08,3.6v7.53Z"/>
    <path class="cls-1" d="M66.76,275.16l-5.25-13.8H64l3,8.27c.32.89.61,1.81.88,2.78.21-.73.5-1.6.87-2.63l3.07-8.42h2.41l-5.23,13.8Z"/>
    <path class="cls-1" d="M85.67,270.72l2.42.29a5.94,5.94,0,0,1-2.12,3.3,6.43,6.43,0,0,1-4,1.16,6.33,6.33,0,0,1-4.8-1.86,7.3,7.3,0,0,1-1.77-5.23A7.68,7.68,0,0,1,77.24,263a6.09,6.09,0,0,1,4.65-1.92,5.89,5.89,0,0,1,4.52,1.88,7.5,7.5,0,0,1,1.76,5.3c0,.15,0,.35,0,.63H77.87a5.24,5.24,0,0,0,1.28,3.48A3.83,3.83,0,0,0,82,273.55a3.59,3.59,0,0,0,2.19-.68,4.39,4.39,0,0,0,1.44-2.15ZM78,266.93h7.7a4.64,4.64,0,0,0-.88-2.6,3.62,3.62,0,0,0-2.9-1.36,3.72,3.72,0,0,0-2.71,1.08A4.28,4.28,0,0,0,78,266.93Z"/>
    <path class="cls-1" d="M121.17,270.72l2.41.29a5.93,5.93,0,0,1-2.11,3.3,6.45,6.45,0,0,1-4,1.16,6.31,6.31,0,0,1-4.8-1.86,7.26,7.26,0,0,1-1.78-5.23,7.63,7.63,0,0,1,1.8-5.41,6.06,6.06,0,0,1,4.65-1.92,5.92,5.92,0,0,1,4.52,1.88,7.5,7.5,0,0,1,1.75,5.3c0,.15,0,.35,0,.63H113.36a5.25,5.25,0,0,0,1.29,3.48,3.81,3.81,0,0,0,2.88,1.21,3.55,3.55,0,0,0,2.19-.68,4.46,4.46,0,0,0,1.45-2.15Zm-7.68-3.79h7.7a4.64,4.64,0,0,0-.88-2.6,3.6,3.6,0,0,0-2.9-1.36,3.73,3.73,0,0,0-2.71,1.08A4.28,4.28,0,0,0,113.49,266.93Z"/>
    <path class="cls-1" d="M136,270.72l2.42.29a5.94,5.94,0,0,1-2.12,3.3,6.43,6.43,0,0,1-3.95,1.16,6.3,6.3,0,0,1-4.79-1.86,7.26,7.26,0,0,1-1.78-5.23,7.68,7.68,0,0,1,1.79-5.41,6.09,6.09,0,0,1,4.66-1.92,5.89,5.89,0,0,1,4.51,1.88,7.46,7.46,0,0,1,1.76,5.3c0,.15,0,.35,0,.63H128.16a5.24,5.24,0,0,0,1.28,3.48,3.83,3.83,0,0,0,2.89,1.21,3.59,3.59,0,0,0,2.19-.68,4.39,4.39,0,0,0,1.44-2.15Zm-7.67-3.79H136a4.64,4.64,0,0,0-.88-2.6,3.6,3.6,0,0,0-2.9-1.36,3.72,3.72,0,0,0-2.71,1.08A4.28,4.28,0,0,0,128.29,266.93Z"/>
    <path class="cls-1" d="M90.09,271l2.31-.36a3.28,3.28,0,0,0,1.09,2.13,3.79,3.79,0,0,0,2.49.74,3.65,3.65,0,0,0,2.39-.66,2,2,0,0,0,.78-1.53,1.41,1.41,0,0,0-.69-1.25,9.63,9.63,0,0,0-2.39-.79,22.13,22.13,0,0,1-3.57-1.13,3.54,3.54,0,0,1-1.6-4.87A3.82,3.82,0,0,1,92.05,262a5.2,5.2,0,0,1,1.49-.68,7,7,0,0,1,2-.28,8,8,0,0,1,2.85.47,3.9,3.9,0,0,1,1.82,1.26,5,5,0,0,1,.8,2.14l-2.28.32a2.55,2.55,0,0,0-.91-1.67,3.29,3.29,0,0,0-2.11-.6,3.79,3.79,0,0,0-2.3.54,1.54,1.54,0,0,0-.69,1.24,1.28,1.28,0,0,0,.29.82,2.06,2.06,0,0,0,.89.63c.24.08.93.28,2.07.59a29.7,29.7,0,0,1,3.46,1.09,3.44,3.44,0,0,1,1.54,1.23,3.35,3.35,0,0,1,.56,2,4,4,0,0,1-.68,2.2,4.44,4.44,0,0,1-2,1.6,7.3,7.3,0,0,1-2.91.56,6.46,6.46,0,0,1-4.1-1.12A5.19,5.19,0,0,1,90.09,271Z"/>
    <path class="cls-1" d="M183.23,271l2.31-.36a3.24,3.24,0,0,0,1.09,2.13,3.79,3.79,0,0,0,2.49.74,3.65,3.65,0,0,0,2.39-.66,2,2,0,0,0,.78-1.53,1.4,1.4,0,0,0-.7-1.25,9.32,9.32,0,0,0-2.39-.79,21.92,21.92,0,0,1-3.56-1.13,3.38,3.38,0,0,1-2-3.16,3.55,3.55,0,0,1,.42-1.71,3.82,3.82,0,0,1,1.15-1.31,5.07,5.07,0,0,1,1.49-.68,7,7,0,0,1,2-.28,8,8,0,0,1,2.85.47,3.86,3.86,0,0,1,1.81,1.26,5,5,0,0,1,.81,2.14l-2.29.32a2.54,2.54,0,0,0-.9-1.67,3.29,3.29,0,0,0-2.11-.6,3.77,3.77,0,0,0-2.3.54,1.54,1.54,0,0,0-.69,1.24,1.28,1.28,0,0,0,.29.82,2,2,0,0,0,.89.63c.24.08.92.28,2.07.59a30.37,30.37,0,0,1,3.46,1.09,3.5,3.5,0,0,1,1.54,1.23,3.42,3.42,0,0,1,.56,2,4,4,0,0,1-.68,2.2,4.5,4.5,0,0,1-2,1.6,7.3,7.3,0,0,1-2.91.56,6.44,6.44,0,0,1-4.1-1.12A5.19,5.19,0,0,1,183.23,271Z"/>
    <path class="cls-1" d="M136,244l2.31-.37c.11,2.88,4.07,3.6,6,2.22a1.69,1.69,0,0,0,.08-2.79c-2.62-1.29-8.12-1.17-8-5.08.1-5.35,10.19-5.38,10.55-.1l-2.29.31c0-3.24-7.38-2.94-5.71.34a2.07,2.07,0,0,0,.89.62c3.71,1.09,9.81,1.87,7,7.12C144,249.86,136.4,249,136,244Z"/>
    <path class="cls-1" d="M141.29,275.16v-13.8h2.11v2.09a5.59,5.59,0,0,1,1.49-1.93,2.58,2.58,0,0,1,1.49-.47,4.61,4.61,0,0,1,2.41.75L148,264a3.31,3.31,0,0,0-1.71-.51,2.21,2.21,0,0,0-1.38.46,2.46,2.46,0,0,0-.87,1.28,9.1,9.1,0,0,0-.39,2.73v7.22Z"/>
    <path class="cls-1" d="M150.19,258.81v-2.7h2.34v2.7Zm0,16.35v-13.8h2.34v13.8Z"/>
    <path class="cls-1" d="M156.09,275.16v-13.8h2.09v1.94a4.42,4.42,0,0,1,4.19-2.25,4.09,4.09,0,0,1,3.89,2.42,5,5,0,0,1,4.26-2.42c3.79,0,4.26,3.06,4.26,4.64v9.47h-2.32v-8.69a6.4,6.4,0,0,0-.23-2c-.15-.41-.41-1.37-2.23-1.37a3.23,3.23,0,0,0-2.41,1,4.24,4.24,0,0,0-1,3.09v8h-2.33v-9c0-1.53-.59-3.12-2.45-3.12a3,3,0,0,0-3,2,8.33,8.33,0,0,0-.38,2.88v7.16Z"/>
    <path class="cls-1" d="M178.26,258.81v-2.7h2.35v2.7Zm0,16.35v-13.8h2.35v13.8Z"/>
    <path class="cls-1" d="M198,275.16v-12H196v-1.82H198V259.9a6.56,6.56,0,0,1,.25-2.07,3,3,0,0,1,1.19-1.48,4.35,4.35,0,0,1,2.39-.56A11.23,11.23,0,0,1,204,256l-.35,2a8.65,8.65,0,0,0-1.38-.13,2,2,0,0,0-1.5.46,2.42,2.42,0,0,0-.45,1.7v1.27H203v1.82h-2.69v12Z"/>
    <path class="cls-1" d="M204,268.26c0-2.55.71-4.45,2.13-5.68a6.43,6.43,0,0,1,4.34-1.53,6.16,6.16,0,0,1,4.65,1.87,7,7,0,0,1,1.81,5.15,9.18,9.18,0,0,1-.8,4.19,5.61,5.61,0,0,1-2.33,2.37,6.81,6.81,0,0,1-3.33.84,6.19,6.19,0,0,1-4.68-1.86,7.36,7.36,0,0,1-1.79-5.35Zm2.4,0a5.88,5.88,0,0,0,1.16,4,3.85,3.85,0,0,0,5.81,0,6,6,0,0,0,1.15-4,5.7,5.7,0,0,0-1.16-3.89,3.86,3.86,0,0,0-5.8,0A5.85,5.85,0,0,0,206.39,268.26Z"/>
    <path class="cls-1" d="M243.41,275.16v-1.74c-1.37,2.34-4.74,2.62-6.9,1.14a6,6,0,0,1-2.14-2.54,10,10,0,0,1-.07-7.49,5.39,5.39,0,0,1,7.36-2.95,4.6,4.6,0,0,1,1.59,1.37v-6.84h2.32v19.05Zm-7.4-6.89a6,6,0,0,0,1.12,4,3.32,3.32,0,0,0,5.24.06c1.5-1.53,1.37-6.53,0-8C239.49,261.1,235.53,264.16,236,268.27Z"/>
    <path class="cls-1" d="M264.11,275.16v-1.74c-1.36,2.34-4.73,2.62-6.89,1.14a6,6,0,0,1-2.14-2.54,10,10,0,0,1-.07-7.49,5.34,5.34,0,0,1,2.06-2.58,5.4,5.4,0,0,1,5.3-.37A4.6,4.6,0,0,1,264,263v-6.84h2.32v19.05Zm-7.39-6.89a6,6,0,0,0,1.12,4,3.32,3.32,0,0,0,5.24.06c1.5-1.53,1.37-6.53,0-8C260.2,261.1,256.24,264.16,256.72,268.27Z"/>
    <path class="cls-1" d="M249.26,258.81v-2.7h2.34v2.7Zm0,16.35v-13.8h2.34v13.8Z"/>
  </g>
  <g>
    <rect class="cls-2" x="8.66" y="9.49" width="262.23" height="175.42"/>
    <g>
      <polygon class="cls-3" points="141.7 35.03 149.26 35.03 143.17 39.61 145.53 46.85 139.46 42.41 133.4 46.85 135.78 39.61 129.64 35.03 137.19 35.03 139.46 27.97 141.7 35.03"/>
      <polygon class="cls-3" points="142.03 151.92 149.59 151.92 143.51 156.49 145.86 163.74 139.8 159.27 133.73 163.74 136.13 156.49 129.98 151.92 137.51 151.92 139.8 144.86 142.03 151.92"/>
      <polygon class="cls-3" points="170.96 144.18 178.53 144.18 172.43 148.74 174.8 155.97 168.74 151.52 162.65 155.97 165.05 148.74 158.9 144.18 166.45 144.18 168.74 137.09 170.96 144.18"/>
      <polygon class="cls-3" points="170.96 42.74 178.53 42.74 172.43 47.31 174.8 54.53 168.74 50.09 162.65 54.53 165.05 47.31 158.9 42.74 166.45 42.74 168.74 35.68 170.96 42.74"/>
      <polygon class="cls-3" points="192.45 64.2 199.99 64.2 193.91 68.77 196.28 76.03 190.22 71.56 184.14 76.03 186.53 68.77 180.38 64.2 187.92 64.2 190.22 57.15 192.45 64.2"/>
      <polygon class="cls-3" points="192.45 122.98 199.99 122.98 193.91 127.55 196.28 134.79 190.22 130.34 184.14 134.79 186.53 127.55 180.38 122.98 187.92 122.98 190.22 115.92 192.45 122.98"/>
      <polygon class="cls-3" points="200.49 93.15 208.05 93.15 201.97 97.72 204.32 104.97 198.26 100.51 192.19 104.97 194.59 97.72 188.45 93.15 195.98 93.15 198.26 86.08 200.49 93.15"/>
      <polygon class="cls-3" points="112.19 42.81 119.75 42.81 113.66 47.39 116.03 54.62 109.96 50.15 103.89 54.62 106.29 47.39 100.15 42.81 107.68 42.81 109.96 35.74 112.19 42.81"/>
      <polygon class="cls-3" points="91.31 64.29 98.87 64.29 92.78 68.85 95.14 76.09 89.08 71.64 83.01 76.09 85.4 68.85 79.26 64.29 86.8 64.29 89.08 57.24 91.31 64.29"/>
      <polygon class="cls-3" points="83.56 93.23 91.1 93.23 85.03 97.79 87.39 105.03 81.33 100.58 75.27 105.03 77.64 97.79 71.51 93.23 79.04 93.23 81.33 86.17 83.56 93.23"/>
      <polygon class="cls-3" points="91.31 123.06 98.87 123.06 92.78 127.62 95.14 134.87 89.08 130.41 83.01 134.87 85.4 127.62 79.26 123.06 86.8 123.06 89.08 116 91.31 123.06"/>
      <polygon class="cls-3" points="112.49 144.24 120.05 144.24 113.96 148.82 116.32 156.05 110.26 151.59 104.19 156.05 106.59 148.82 100.44 144.24 107.98 144.24 110.26 137.17 112.49 144.24"/>
    </g>
  </g>
  <g>
    <path class="cls-4" d="M416.94,44.44a126.06,126.06,0,0,1,55.62,18.84s.45.32,1.13.75A128.12,128.12,0,0,0,290,37.19,90.48,90.48,0,0,1,337.79,63.4,126.19,126.19,0,0,1,416.94,44.44Z"/>
    <path class="cls-5" d="M495.7,125a0,0,0,0,1,0,0c0,.06,0,.11,0,.17Z"/>
    <path class="cls-6" d="M496.6,125c-1.92-22-10.68-43.49-22.91-60.92a124.25,124.25,0,0,0-56.75-19.59,126.19,126.19,0,0,0-79.15,19,90.37,90.37,0,0,1,25,55.17c3.33,41-19.78,66.58-30.7,76.14l.2-.17c42-24.32,94-34.78,145.31-27-4.66,4.4-11.65,8.14-17.34,11.09,6.93-1.8,31.3-11.53,31.65-12.27l0,0h0S498.78,152.78,496.6,125Z"/>
    <path class="cls-5" d="M493.57,123.58c-16.24-11-29.63-17.64-57.9-20.26a126,126,0,0,0-60.8,9.37c4.32,30.63-16.29,64.2-36.2,78.14,51.48-29.61,101.81-39.9,152.47-24.7C495.75,142.93,494.14,127.57,493.57,123.58Z"/>
  </g>
  <g>
    <polygon class="cls-1" points="389.54 220.93 389.54 201.88 403.31 201.88 403.31 204.13 392.06 204.13 392.06 209.96 402.6 209.96 402.6 212.19 392.06 212.19 392.06 218.68 403.76 218.68 403.76 220.93 389.54 220.93"/>
    <path class="cls-1" d="M416.38,216.48l2.42.3a5.91,5.91,0,0,1-2.12,3.29c-2.27,1.78-6.86,1.51-8.75-.7-2.41-2.29-2.32-8.36,0-10.63,2.19-2.53,7-2.6,9.17,0a7.9,7.9,0,0,1,1.74,5.92H408.58a5.24,5.24,0,0,0,1.28,3.48,4,4,0,0,0,5.08.54,4.42,4.42,0,0,0,1.44-2.16Zm-7.68-3.78h7.71a4.68,4.68,0,0,0-.88-2.61C413.3,207.31,408.65,209.12,408.7,212.7Z"/>
    <path class="cls-1" d="M372,243.53l2.41.29a5.86,5.86,0,0,1-2.11,3.29c-2.28,1.79-6.87,1.51-8.75-.69-2.42-2.29-2.33-8.36,0-10.64a6.48,6.48,0,0,1,9.17,0,8,8,0,0,1,1.74,5.93H364.2a5.3,5.3,0,0,0,1.29,3.48,4,4,0,0,0,5.07.53,4.46,4.46,0,0,0,1.45-2.15Zm-7.68-3.79H372a4.64,4.64,0,0,0-.88-2.6C368.93,234.36,364.28,236.16,364.33,239.74Z"/>
    <path class="cls-1" d="M456.31,243.53l2.42.29a5.93,5.93,0,0,1-2.12,3.29c-2.27,1.79-6.86,1.51-8.75-.69-2.41-2.29-2.32-8.36,0-10.64,2.19-2.52,7-2.59,9.17,0a8,8,0,0,1,1.74,5.93H448.5a5.3,5.3,0,0,0,1.29,3.48,4,4,0,0,0,5.08.53,4.45,4.45,0,0,0,1.44-2.15Zm-7.68-3.79h7.71a4.64,4.64,0,0,0-.89-2.6C453.23,234.36,448.58,236.16,448.63,239.74Z"/>
    <path class="cls-1" d="M420.8,216.81l2.31-.37c.11,2.88,4.07,3.6,6,2.22a1.7,1.7,0,0,0,.09-2.79c-2.63-1.29-8.13-1.17-8-5.08.1-5.35,10.19-5.37,10.55-.1l-2.29.31c-.12-2.46-3.82-2.74-5.31-1.73-1.91,1.89.35,2.84,2.56,3.29,3.08.93,5.41,1.07,5.56,4.31C432,222.8,421.18,222.73,420.8,216.81Z"/>
    <path class="cls-1" d="M488.83,243.86l2.31-.36c.12,2.88,4.07,3.59,6,2.21a1.7,1.7,0,0,0,.09-2.79c-2.62-1.28-8.13-1.17-8-5.07.1-5.35,10.19-5.38,10.55-.11l-2.29.31c-.12-2.46-3.82-2.74-5.31-1.72-1.91,1.88.35,2.83,2.56,3.28,3.08.93,5.41,1.07,5.56,4.32C500,249.85,489.21,249.78,488.83,243.86Z"/>
    <path class="cls-1" d="M440.14,218.83l.34,2.07c-3.15.73-5.44-.25-5-4V209h-1.72v-1.82h1.72v-3.42l2.32-1.4v4.82h2.35V209h-2.35V217C437.6,218.86,438.62,219.13,440.14,218.83Z"/>
    <path class="cls-1" d="M442.44,204.57v-2.69h2.34v2.69Zm0,16.36v-13.8h2.34v13.8Z"/>
    <path class="cls-1" d="M339.57,245.88l.34,2.06c-3.23.73-5.38-.2-5-4V236h-1.72v-1.81h1.72v-3.42l2.33-1.4v4.82h2.35V236h-2.35v8.07C337,245.9,338,246.17,339.57,245.88Z"/>
    <path class="cls-1" d="M350.9,248v-2a5.34,5.34,0,0,1-6.66,1.88,3.72,3.72,0,0,1-1.57-1.18,4.17,4.17,0,0,1-.72-1.73c-.28-1.26-.09-9.24-.15-10.73h2.34c.05,1.61-.13,8.79.14,10.12a2.49,2.49,0,0,0,.94,1.45,3.55,3.55,0,0,0,3.74,0,3,3,0,0,0,1.31-1.47c.7-1.5.27-8.28.38-10.08H353V248Z"/>
    <path class="cls-1" d="M418.93,248v-2a5.34,5.34,0,0,1-6.66,1.88,3.72,3.72,0,0,1-1.57-1.18,4.17,4.17,0,0,1-.72-1.73c-.28-1.26-.09-9.24-.14-10.73h2.33c.05,1.61-.13,8.79.14,10.12a2.59,2.59,0,0,0,.94,1.45,3.55,3.55,0,0,0,3.74,0,3,3,0,0,0,1.31-1.47c.71-1.5.27-8.28.38-10.08H421V248Z"/>
    <rect class="cls-1" x="356.6" y="228.93" width="2.34" height="19.05"/>
    <path class="cls-1" d="M381.2,248l-5.26-13.79h2.48l3,8.26c.32.89.61,1.82.88,2.78.21-.73.5-1.6.87-2.63l3.07-8.41h2.4L383.38,248Z"/>
    <path class="cls-1" d="M390.68,231.62v-2.69H393v2.69Zm0,16.35V234.18H393V248Z"/>
    <polygon class="cls-1" points="396.59 247.97 396.59 228.93 398.93 228.93 398.93 239.79 404.46 234.18 407.49 234.18 402.21 239.29 408.02 247.97 405.14 247.97 400.58 240.92 398.93 242.5 398.93 247.97 396.59 247.97"/>
    <path class="cls-1" d="M432.07,248v-19h2.34v6.83c2-2.57,6.92-2.64,8.41.38.91,1.73.34,9.74.49,11.83H441c-.25-1.83.68-10-.76-11.29-1.43-1.51-4.66-.79-5.41,1.2-.74,1.47-.26,8.34-.39,10.09Z"/>
    <path class="cls-1" d="M470.67,246.27c-2.25,2.13-6.28,2.83-8.58.9a3.91,3.91,0,0,1,.45-6c1.85-1.36,6.23-1.15,7.93-1.93.26-2.39-1-3.43-3.31-3.41-2.15,0-3,.56-3.6,2.62l-2.28-.31c.34-5,10.41-6,11.44-1.19.47,3.09-.52,8.65.86,11.05h-2.44a5,5,0,0,1-.47-1.7Zm-.2-5.23c-1.36.88-5.59.49-6.78,2.12-1.62,3,2.84,4.1,4.86,2.7C470.36,244.9,470.55,243.09,470.47,241Z"/>
    <polygon class="cls-1" points="476.47 247.97 476.47 228.93 478.81 228.93 478.81 239.79 484.35 234.18 487.37 234.18 482.1 239.29 487.91 247.97 485.02 247.97 480.47 240.92 478.81 242.5 478.81 247.97 476.47 247.97"/>
  </g>
</svg>
