<svg xmlns="http://www.w3.org/2000/svg" viewBox="0 0 46.66 49.11">
  <defs>
    <style>
      .a {
        fill: #fff;
      }
    </style>
  </defs>
  <g>
    <rect width="46.66" height="49.11"/>
    <path class="a" d="M13.7,32.59a14.87,14.87,0,0,1,0-20.27l1.93,2a11.86,11.86,0,0,0,0,16.21Z"/>
    <path class="a" d="M33,32.59l-1.93-2a11.89,11.89,0,0,0,0-16.21l1.93-2a14.87,14.87,0,0,1,0,20.27"/>
    <path class="a" d="M29.12,28.54l-1.94-2a6,6,0,0,0,0-8.14l1.94-2a9,9,0,0,1,0,12.17"/>
    <path class="a" d="M17.54,28.54a9,9,0,0,1,0-12.17l1.94,2a6,6,0,0,0,0,8.14Z"/>
    <path class="a" d="M26.05,22.45a2.73,2.73,0,1,1-2.72-2.86,2.8,2.8,0,0,1,2.72,2.86"/>
    <rect class="a" x="21.97" y="23.88" width="2.72" height="12.9"/>
  </g>
</svg>
