<svg xmlns="http://www.w3.org/2000/svg" viewBox="0 0 46.66 49.12">
  <defs>
    <style>
      .a {
        fill: #fff;
      }
    </style>
  </defs>
  <g>
    <rect width="46.66" height="49.12"/>
    <path class="a" d="M34.86,24.72,33.2,26.3a10.53,10.53,0,0,1,2.52,6.86A10.7,10.7,0,0,1,33.19,40l1.67,1.58A13,13,0,0,0,38,33.16a12.88,12.88,0,0,0-3.1-8.44"/>
    <path class="a" d="M31.72,28.09,30,29.6a5.73,5.73,0,0,1,0,7.12l1.72,1.52a8.2,8.2,0,0,0,0-10.15"/>
    <path class="a" d="M21.56,27.05a1.36,1.36,0,1,1,1.29-1.36,1.33,1.33,0,0,1-1.29,1.36m4.08-2.23v-.23a8.35,8.35,0,0,0-1.18-4.35,4.9,4.9,0,0,0,1.7-1.1c-1-.35-1.63-.84-1.63-1.38,0-.69,1-1.29,2.56-1.64-.25-1-1.44-1.76-5.05-1.76-3.81,0-9.59,1.77-10.43,3a6.83,6.83,0,0,0-1.18,1.54l-.06.06a6.15,6.15,0,0,1-.64-2.07,5,5,0,0,0-.52,3.47l-.09.13a6.12,6.12,0,0,1-1-.93,4.91,4.91,0,0,0,.46,1.88,7.42,7.42,0,0,0-.68,3.13,9.17,9.17,0,0,0,1.59,5,11.77,11.77,0,0,0,2.41,3.25.77.77,0,0,0,.52.25A3.33,3.33,0,0,1,13,34.91,8.23,8.23,0,0,1,12.22,38L19,40.46h1.72l.45-3.62h4l.54-.63V34.72a8.47,8.47,0,0,1-3.21-2.21l3.21-.24V30.43H26L27.9,30s-1-1.78-2-3.23a2.11,2.11,0,0,1-.3-1.95"/>
  </g>
</svg>
