<svg xmlns="http://www.w3.org/2000/svg" viewBox="0 0 46.66 49.11">
  <defs>
    <style>
      .a {
        fill: #fff;
      }
    </style>
  </defs>
  <g>
    <rect width="46.66" height="49.11"/>
    <path class="a" d="M33.93,32.91a3.4,3.4,0,0,1-3.32-3.48V16.2h2.64V29.43a.68.68,0,0,0,.67.7.68.68,0,0,0,.66-.7V23.16h2.65v6.27a3.4,3.4,0,0,1-3.3,3.48"/>
    <path class="a" d="M37.91,32.91a3.41,3.41,0,0,1-3.33-3.48h2.65a.68.68,0,0,0,.67.7.67.67,0,0,0,.65-.7V16.2H41.2V29.43a3.39,3.39,0,0,1-3.29,3.48"/>
    <rect class="a" x="5.46" y="17.59" width="2.65" height="15.32"/>
    <path class="a" d="M28,32.91H25.31V19.68a.68.68,0,0,0-.66-.7H22a.68.68,0,0,0-.66.7V32.91H18.7V19.68A3.4,3.4,0,0,1,22,16.2h2.64A3.4,3.4,0,0,1,28,19.68Z"/>
    <rect class="a" x="20.02" y="24.55" width="6.62" height="2.79"/>
    <path class="a" d="M11.45,26h-6V16.2h6A4.73,4.73,0,0,1,16.05,21,4.75,4.75,0,0,1,11.45,26M8.11,23.16h3.34a2.09,2.09,0,0,0,0-4.17H8.11Z"/>
    <polygon class="a" points="15.55 32.91 12.6 32.91 9.58 25.18 11.94 23.93 15.55 32.91"/>
  </g>
</svg>
