<svg xmlns="http://www.w3.org/2000/svg" viewBox="0 0 82.06 52">
  <defs>
    <style>
      .cls-1 {
        fill: none;
        stroke: #000;
        stroke-miterlimit: 10;
        stroke-width: 2px;
      }
    </style>
  </defs>
  <g id="Layer_2" data-name="Layer 2">
    <g id="Layer_1-2" data-name="Layer 1">
      <g>
        <path d="M50.73,23.7c-5.24.68-3.72,9.15,1.58,7.39C56.12,29.66,55,23.2,50.73,23.7Zm-.08,6.22c-2.24-.66-1.91-5.16.68-4.87C53.77,25.52,53.34,30.41,50.65,29.92Z"/>
        <path d="M42.92,23.7a2.67,2.67,0,0,0-2,1.17,2.46,2.46,0,0,0-4-.26l-.05-.77H35.39v7.31H37c0-.15,0-4.69,0-4.7a1.72,1.72,0,0,1,.86-1.19,1.17,1.17,0,0,1,1.7.85c.16.37.07,4.55.09,5h1.63c0-.31-.07-4.87.09-5a1.38,1.38,0,0,1,1.79-.92A1.51,1.51,0,0,1,44,26.46c.07.21,0,4.35,0,4.69h1.64c0-1,.14-4.67-.17-5.6A2.43,2.43,0,0,0,42.92,23.7Z"/>
        <path d="M66.12,26.37a1.58,1.58,0,0,1,3.15.25H66.06Zm1.33-2.67c-2.78.28-3.79,3.85-2.51,6,1.14,1.83,3.79,1.88,5.58,1l-.3-1.3c-1.58.76-4.11.69-4.21-1.54h4.82C71.24,25.76,69.89,23.37,67.45,23.7Z"/>
        <path d="M61.21,20.62v3.77c-2.43-2-5.38.41-5.2,3.22-.18,2.93,3.14,5,5.35,2.74l0,.81H63c-.15-1.31,0-9.07-.07-10.54Zm-1.85,9.26a1.64,1.64,0,0,1-1.21-.67c-.74-1.18-.65-3.17.62-3.95a1.71,1.71,0,0,1,2.39,1.12,10.49,10.49,0,0,1,0,2.17A1.71,1.71,0,0,1,59.36,29.88Z"/>
        <path d="M20.4,16.4a.94.94,0,0,0-1,.87c0,1.74,0,5,0,6.76a1,1,0,0,0,2-.1c0-1.92,0-4.84,0-6.75A.89.89,0,0,0,20.4,16.4Z"/>
        <path d="M14.63,29.57a6.56,6.56,0,0,1,1.25-7.07c.55-.48,1.86-1.17,1.49-2.08-1-2.05-3.2.94-4,1.85A9.73,9.73,0,0,0,12,27.76a8.51,8.51,0,0,0,12.28,6.57,8.57,8.57,0,0,0,3-12.06c-.82-.83-2.57-3.52-3.83-2.19-.81,1,.62,1.87,1.31,2.42l.92,1.17C29.81,31.4,18.74,37.3,14.63,29.57Z"/>
        <path class="cls-1" d="M72,51H10.09A9,9,0,0,1,1,42.12V9.88A9,9,0,0,1,10.09,1H72a9,9,0,0,1,9.09,8.88V42.12A9,9,0,0,1,72,51Z"/>
      </g>
    </g>
  </g>
</svg>
